<?xml version="1.0" standalone="no"?>
<!DOCTYPE svg PUBLIC "-//W3C//DTD SVG 20010904//EN"
 "http://www.w3.org/TR/2001/REC-SVG-20010904/DTD/svg10.dtd">
<svg version="1.0" xmlns="http://www.w3.org/2000/svg"
 width="512.000000pt" height="512.000000pt" viewBox="0 0 512.000000 512.000000"
 preserveAspectRatio="xMidYMid meet">
<metadata>
Created by potrace 1.11, written by Peter Selinger 2001-2013
</metadata>
<g transform="translate(0.000000,512.000000) scale(0.100000,-0.100000)"
fill="#000000" stroke="none">
<path d="M640 3680 l0 -840 150 0 150 0 0 840 0 840 -150 0 -150 0 0 -840z"/>
<path d="M1180 3681 l0 -841 150 0 150 0 0 535 0 535 133 -101 c72 -55 139
-105 147 -112 69 -56 244 -189 254 -193 7 -3 66 37 132 88 65 52 185 144 267
206 l147 113 0 -536 0 -535 150 0 150 0 0 840 0 841 -82 -63 c-46 -35 -85 -65
-88 -68 -3 -3 -23 -19 -45 -36 -565 -434 -619 -474 -634 -469 -10 3 -26 13
-37 23 -10 9 -53 43 -94 74 -41 32 -79 61 -85 66 -5 4 -28 21 -50 37 -22 17
-46 36 -55 42 -8 7 -89 70 -180 139 -91 70 -202 156 -247 191 l-83 64 0 -840z"/>
<path d="M3849 4516 c-2 -2 -25 -6 -51 -9 -26 -3 -85 -19 -130 -34 -263 -91
-466 -309 -540 -580 -31 -113 -31 -317 0 -425 85 -300 304 -518 601 -601 71
-20 105 -21 564 -25 l487 -3 0 463 0 463 -420 0 -420 0 0 -152 0 -153 270 0
270 0 0 -161 0 -160 -327 3 c-327 4 -328 4 -394 30 -163 64 -275 180 -330 338
-34 98 -33 260 3 351 34 86 66 136 126 197 60 61 113 95 201 130 l66 27 478 3
477 3 0 150 0 149 -464 0 c-255 0 -465 -2 -467 -4z"/>
<path d="M1175 2190 c-10 -17 -2 -290 9 -291 6 0 281 -1 611 -1 410 -1 608 -5
625 -12 80 -35 121 -92 126 -175 3 -62 -17 -109 -63 -153 -52 -49 -62 -50
-498 -52 -395 -2 -412 -3 -474 -25 -166 -58 -293 -198 -330 -364 -9 -36 -15
-382 -11 -577 l0 -25 835 0 c459 0 835 2 836 5 4 27 3 265 -2 278 -6 18 -64
19 -1127 21 l-244 1 4 129 c3 125 4 131 33 173 18 25 49 52 75 66 44 22 49 22
440 22 437 0 465 3 569 62 109 62 204 175 237 282 55 181 10 360 -124 495 -76
76 -159 122 -249 139 -60 11 -1271 13 -1278 2z"/>
<path d="M3143 2192 l-51 -3 -1 -148 -1 -149 614 1 613 0 43 -24 c69 -38 103
-88 108 -158 4 -62 -10 -104 -52 -149 -52 -58 -42 -57 -551 -62 l-470 -5 -2
-147 -2 -148 137 0 c75 0 288 -1 474 -3 l336 -2 43 -30 c51 -36 88 -104 88
-160 1 -84 -63 -169 -142 -189 -29 -7 -235 -11 -640 -11 l-597 1 0 -151 0
-150 628 1 c691 1 684 0 798 65 105 59 204 186 234 298 39 149 1 329 -95 448
l-26 31 28 34 c75 88 115 218 108 349 -6 126 -51 224 -143 316 -97 96 -195
138 -332 143 -112 3 -1087 5 -1147 2z"/>
<path d="M380 2173 c-13 -3 -15 -25 -14 -146 1 -78 2 -144 3 -147 1 -3 24 -6
52 -7 83 -4 161 -59 195 -138 16 -36 18 -94 19 -632 0 -326 3 -595 7 -598 5
-6 156 -9 264 -6 l30 1 -1 593 c-2 516 -4 601 -19 661 -51 212 -229 379 -441
412 -58 9 -78 10 -95 7z"/>
</g>
</svg>
