<?xml version="1.0" encoding="UTF-8"?>
<svg width="551px" height="133px" viewBox="0 0 551 133" version="1.1" xmlns="http://www.w3.org/2000/svg" xmlns:xlink="http://www.w3.org/1999/xlink">
    <!-- Generator: Sketch 58 (84663) - https://sketch.com -->
    <title>logo</title>
    <desc>Created with Sketch.</desc>
    <g id="logo" stroke="none" stroke-width="1" fill="none" fill-rule="evenodd">
        <path d="M31,107 L31,51 L21,51 L21,107 L31,107 Z M85,58.68 L67,72.52 L49,58.68 L39,51 L39,107 L49,107 L49,71.32 L58.84,78.84 L67,85.16 L75.16,78.84 L85,71.32 L85,107 L95,107 L95,51 L85,58.68 Z M131,61 C121.08,61 113,69.08 113,79 C113,88.92 121.08,97 131,97 L149,97 L149,86.28 L131,86.28 L131,76.28 L159,76.28 L159,107 L131,107 C115.56,107 103,94.44 103,79 C103,63.56 115.56,51 131,51 L159,51 L159,61 L131,61 Z" id="IMG" fill="#FFFFFF" fill-rule="nonzero"></path>
        <g id="123" transform="translate(179.460000, 23.120000)" fill-rule="nonzero">
            <path d="M28.32,28.08 L28.56,27.84 L28.56,84.96 L13.56,84.96 L13.56,26.28 C12.84,21 8.64,16.8 3.36,16.08 L-1.42108547e-14,16.08 L-1.42108547e-14,1.2 L3.24,1.2 L3.24,1.32 C6.84,1.56 10.32,2.52 13.44,4.08 C18.72,6.72 23.04,11.04 25.56,16.32 C26.4,18.12 27.12,20.04 27.6,21.96 C28.08,23.88 28.32,25.92 28.32,28.08 Z" id="1" fill="#F7B500"></path>
            <path d="M55.32,68.88 L123.96,69.12 L123.96,84.12 L40.2,84.12 L40.2,59.4 C40.2,56.1133333 40.8422222,53.0407407 42.0255761,50.1822222 L42.24,49.68 C45.84,41.04 54.24,34.92 64.08,34.56 L100.44,34.56 C105.48,34.08 109.32,29.88 109.32,24.84 C109.32,19.44 105,15 99.6,15 L40.44,15 L40.44,0 L99.6,0 C113.28,0 124.32,11.04 124.32,24.72 C124.32,28.2 123.6,31.44 122.28,34.44 C121.08,37.2 119.4,39.72 117.24,41.88 C112.92,46.32 106.92,49.2 100.32,49.44 L64.08,49.44 C59.16,49.92 55.32,54.12 55.32,59.16 L55.32,68.88 Z" id="2" fill="#32C5FF"></path>
            <path d="M220.32,24.96 L220.2,25.32 C220.2,32.04 217.56,38.16 213.24,42.6 C217.56,47.04 220.2,53.16 220.2,59.88 C220.2,73.56 209.16,84.6 195.48,84.6 L136.32,84.6 L136.32,69.6 L195.48,69.6 C200.88,69.6 205.32,65.16 205.32,59.76 C205.32,54.48 201.24,50.16 196.08,49.92 L151.44,49.92 L151.44,34.92 L196.08,34.92 L196.08,34.92 C201.24,34.68 205.44,30.36 205.44,25.08 C205.44,19.68 201,15.24 195.6,15.24 L136.44,15.24 L136.44,0.24 L195.6,0.24 C209.28,0.24 220.32,11.28 220.32,24.96 Z" id="3" fill="#6DD400"></path>
        </g>
        <path d="M421.72,104.21 L421.72,100.46 L417.97,100.46 L417.97,104.21 L421.72,104.21 Z M424.72,83.03 L424.72,86.78 L433.33,86.78 L433.33,104.03 L437.08,104.03 L437.08,86.78 L445.69,86.78 L445.69,83.03 L424.72,83.03 Z M456.52,83 C450.73,83 446.02,87.71 446.02,93.5 C446.02,99.29 450.73,104 456.52,104 C462.31,104 467.02,99.29 467.02,93.5 C467.02,87.71 462.31,83 456.52,83 Z M456.52,100.25 C452.8,100.25 449.77,97.22 449.77,93.5 C449.77,89.78 452.8,86.75 456.52,86.75 C460.24,86.75 463.27,89.78 463.27,93.5 C463.27,97.22 460.24,100.25 456.52,100.25 Z M479.08,83 C473.29,83 468.58,87.71 468.58,93.5 C468.58,99.29 473.29,104 479.08,104 C484.87,104 489.58,99.29 489.58,93.5 C489.58,87.71 484.87,83 479.08,83 Z M479.08,100.25 C475.36,100.25 472.33,97.22 472.33,93.5 C472.33,89.78 475.36,86.75 479.08,86.75 C482.8,86.75 485.83,89.78 485.83,93.5 C485.83,97.22 482.8,100.25 479.08,100.25 Z M498.16,100.25 C496.84,100.07 495.79,99.02 495.61,97.7 L495.61,83.03 L491.86,83.03 L491.86,97.34 C491.86,98.39 492.1,99.38 492.55,100.28 C493.18,101.6 494.26,102.68 495.58,103.34 C496.48,103.79 497.47,104.03 498.52,104.03 L509.17,104.03 L509.17,100.28 L498.16,100.25 Z M532.03,88.79 L528.28,88.82 L528.28,88.7 C528.28,87.65 527.41,86.78 526.36,86.78 L517.84,86.78 C516.79,86.78 515.92,87.65 515.92,88.7 L515.92,88.82 C515.92,89.87 516.79,90.74 517.84,90.74 L525.4,90.74 C527.35,90.74 529.09,91.58 530.29,92.9 L530.53,93.17 L530.53,93.17 C531.46,94.31 532.03,95.78 532.03,97.37 C532.03,101.03 529.06,104 525.4,104 L518.83,104 C515.17,104 512.2,101.03 512.2,97.37 L515.95,97.37 C515.95,98.96 517.24,100.25 518.83,100.25 L525.4,100.25 C526.99,100.25 528.31,98.96 528.31,97.37 C528.31,95.78 526.99,94.49 525.4,94.49 L517.84,94.49 C516.31,94.49 514.93,93.89 513.91,92.9 C513.64,92.63 513.4,92.33 513.19,92 C512.56,91.1 512.2,89.99 512.2,88.79 L512.2,88.67 C512.2,85.55 514.72,83 517.84,83 L526.36,83 C529.48,83 532.03,85.55 532.03,88.67 L532.03,88.79 Z" id=".tools" fill="#FFFFFF" fill-rule="nonzero"></path>
    </g>
</svg>